<?xml version="1.0" encoding="utf-8"?>
<!-- Generator: Adobe Illustrator 16.0.0, SVG Export Plug-In . SVG Version: 6.00 Build 0)  -->
<!DOCTYPE svg PUBLIC "-//W3C//DTD SVG 1.1//EN" "http://www.w3.org/Graphics/SVG/1.1/DTD/svg11.dtd">
<svg version="1.1" id="Layer_1" xmlns="http://www.w3.org/2000/svg" xmlns:xlink="http://www.w3.org/1999/xlink" x="0px" y="0px"
	 width="28.35px" height="28.35px" viewBox="0 0 28.35 28.35" enable-background="new 0 0 28.35 28.35" xml:space="preserve">
<path fill-rule="evenodd" clip-rule="evenodd" fill="#FFFFFF" d="M19.705,21.518c0.643,0,1.145,0.502,1.145,1.157
	s-0.502,1.157-1.145,1.157c-0.629,0-1.13-0.502-1.13-1.157S19.076,21.518,19.705,21.518z M11.712,21.518
	c0.643,0,1.144,0.502,1.144,1.157s-0.501,1.157-1.144,1.157s-1.144-0.502-1.144-1.157S11.07,21.518,11.712,21.518z M19.705,19.783
	c-1.554,0-2.852,1.311-2.852,2.892s1.298,2.892,2.852,2.892c1.568,0,2.866-1.311,2.866-2.892S21.273,19.783,19.705,19.783z
	 M11.712,19.783c-1.568,0-2.853,1.311-2.853,2.892s1.285,2.892,2.853,2.892c1.567,0,2.853-1.311,2.853-2.892
	S13.28,19.783,11.712,19.783z M7.844,7.061h17.067l-1.324,5.834l-13.019,1.054L7.844,7.061z M2.009,2.434
	c-0.476,0-0.861,0.386-0.861,0.861c0,0.488,0.385,0.874,0.861,0.874h2.84c1.427,3.56,2.814,7.12,4.228,10.679L7.78,17.996
	c-0.103,0.271-0.077,0.592,0.077,0.823c0.154,0.23,0.437,0.385,0.719,0.385h14.279c0.449,0,0.873-0.41,0.873-0.86
	c0-0.463-0.424-0.888-0.873-0.874H9.861l0.733-1.785l13.764-1.119c0.359-0.026,0.681-0.308,0.758-0.668l1.723-7.518
	c0.103-0.5-0.334-1.054-0.849-1.054H7.15L6.225,2.974c-0.129-0.321-0.45-0.54-0.797-0.54H2.009z"/>
</svg>
