<?xml version="1.0" encoding="utf-8"?>
<!-- Generator: Adobe Illustrator 16.0.0, SVG Export Plug-In . SVG Version: 6.00 Build 0)  -->
<!DOCTYPE svg PUBLIC "-//W3C//DTD SVG 1.1//EN" "http://www.w3.org/Graphics/SVG/1.1/DTD/svg11.dtd">
<svg version="1.1" id="Layer_1" xmlns="http://www.w3.org/2000/svg" xmlns:xlink="http://www.w3.org/1999/xlink" x="0px" y="0px"
	 width="28.35px" height="28.35px" viewBox="0 0 28.35 28.35" enable-background="new 0 0 28.35 28.35" xml:space="preserve">
<path fill-rule="evenodd" clip-rule="evenodd" fill="#FFFFFF" d="M18.794,13.653l-6.72-3.919c-0.612-0.356-1.104-0.07-1.1,0.638
	l0.033,7.775c0.003,0.708,0.502,0.998,1.118,0.642l6.665-3.849C19.402,14.588,19.406,14.009,18.794,13.653z M19.308,23.061
	c-4.909,2.834-11.186,1.155-14.02-3.754C2.451,14.397,4.133,8.117,9.042,5.287c4.909-2.837,11.186-1.155,14.02,3.754
	C25.896,13.95,24.217,20.227,19.308,23.061z M25.283,7.758C21.742,1.625,13.896-0.48,7.759,3.065
	C1.625,6.607-0.479,14.452,3.066,20.59c3.542,6.134,11.387,8.238,17.524,4.696C26.725,21.741,28.829,13.896,25.283,7.758z"/>
</svg>
