<?xml version="1.0" encoding="utf-8"?>
<!-- Generator: Adobe Illustrator 16.0.0, SVG Export Plug-In . SVG Version: 6.00 Build 0)  -->
<!DOCTYPE svg PUBLIC "-//W3C//DTD SVG 1.1//EN" "http://www.w3.org/Graphics/SVG/1.1/DTD/svg11.dtd">
<svg version="1.1" id="Layer_1" xmlns="http://www.w3.org/2000/svg" xmlns:xlink="http://www.w3.org/1999/xlink" x="0px" y="0px"
	 width="28.35px" height="28.35px" viewBox="0 0 28.35 28.35" enable-background="new 0 0 28.35 28.35" xml:space="preserve">
<path fill-rule="evenodd" clip-rule="evenodd" fill="#FFFFFF" d="M3.541,11.406C3.67,5.703,8.527,1.103,14.46,1.103
	c5.904,0,10.719,4.542,10.919,10.189c1.203,0.989,2.078,2.408,2.078,3.999c0,1.548-0.83,2.952-1.978,3.927
	c-0.344,3.653-3.167,6.248-7.009,6.248h-0.457c-0.646,0.858-1.692,1.433-2.866,1.433H14.36c-1.949,0-3.525-1.534-3.525-3.41
	c0-1.176,0.602-2.565,3.525-2.565h0.788c2.092,0,2.995,0.717,3.339,1.548c1.577,0,2.781-0.675,3.425-1.806h-0.028
	c-1.276,0-2.092-0.602-2.479-1.777c-0.3-0.918-0.271-2.092-0.271-3.454v-0.271c0-1.362-0.015-2.537,0.271-3.468
	c0.358-1.075,1.089-1.663,2.192-1.749C20.81,6.863,17.899,4.57,14.46,4.57c-3.425,0-6.32,2.278-7.123,5.36
	c1.176,0.058,1.978,0.645,2.336,1.763c0.301,0.932,0.33,2.106,0.33,3.468v0.271c0,1.362-0.029,2.536-0.33,3.454
	c-0.373,1.176-1.218,1.777-2.494,1.777c-2.522,0-5.589-2.393-5.589-5.374C1.592,13.756,2.408,12.381,3.541,11.406z"/>
</svg>
