<?xml version="1.0" encoding="utf-8"?>
<!-- Generator: Adobe Illustrator 16.0.0, SVG Export Plug-In . SVG Version: 6.00 Build 0)  -->
<!DOCTYPE svg PUBLIC "-//W3C//DTD SVG 1.1//EN" "http://www.w3.org/Graphics/SVG/1.1/DTD/svg11.dtd">
<svg version="1.1" id="Layer_1" xmlns="http://www.w3.org/2000/svg" xmlns:xlink="http://www.w3.org/1999/xlink" x="0px" y="0px"
	 width="28.35px" height="28.35px" viewBox="0 0 28.35 28.35" enable-background="new 0 0 28.35 28.35" xml:space="preserve">
<path fill-rule="evenodd" clip-rule="evenodd" fill="#FFFFFF" d="M15.547,4.17l3.739,3.781c0.523,0.522,0.949,1.567,0.949,2.31
	v3.066l-4.675-4.702c-0.536-0.522-1.389-0.522-1.911,0l-4.634,4.661v-3.025c0-0.742,0.426-1.787,0.949-2.324L13.65,4.17
	C14.172,3.634,15.024,3.634,15.547,4.17z M21.734,14.839V9.573c0-0.742-0.426-1.773-0.95-2.296l-5.224-5.252
	c-0.536-0.537-1.389-0.537-1.911,0L8.466,7.277C7.943,7.8,7.518,8.831,7.518,9.573v5.211l-2.819,2.847
	c-0.522,0.521-0.962,1.553-0.949,2.296v5.1c0,0.744,0.605,1.349,1.348,1.349h5.046c0.742,0,1.788-0.428,2.31-0.963l2.145-2.158
	l2.159,2.158c0.522,0.535,1.554,0.963,2.31,0.963h5.032c0.757,0,1.361-0.604,1.361-1.349v-5.1c0-0.743-0.427-1.774-0.948-2.296
	L21.734,14.839z M9.016,15.513v-0.097l4.634-4.66c0.522-0.523,1.375-0.523,1.911,0l4.675,4.703l-5.637,5.663L9.016,15.513z
	 M6.61,24.85c-0.743,0-1.348-0.593-1.348-1.335l0.014-2.997c0-0.742,0.426-1.773,0.962-2.31l1.664-1.678l5.637,5.664l-1.678,1.678
	c-0.522,0.537-1.553,0.962-2.309,0.962L6.61,24.85z M15.657,22.194l5.638-5.664l1.676,1.678c0.523,0.536,0.949,1.567,0.964,2.31
	l0.014,2.997c0,0.742-0.605,1.335-1.361,1.335l-2.943-0.016c-0.741,0-1.772-0.425-2.31-0.962L15.657,22.194z"/>
</svg>
