<svg version="1.1" id="Layer_1" xmlns="http://www.w3.org/2000/svg" xmlns:xlink="http://www.w3.org/1999/xlink" x="0px" y="0px" width="28.35px" height="28.35px" viewBox="0 0 28.35 28.35" enable-background="new 0 0 28.35 28.35" xml:space="preserve" class="slide-icon style-svg replaced-svg svg-replaced-17">
<g>
	<path fill="#FFFFFF" d="M9.396,7.151"></path>
	<path fill="#FFFFFF" d="M2.336,5.443c-0.51-1.541,0.332-3.209,1.873-3.717C5.75,1.218,7.417,2.057,7.927,3.599L13.71,21.13   c-0.539-0.143-1.113-0.169-1.685-0.064l-5.6-16.971C6.19,3.379,5.418,2.991,4.704,3.226C3.989,3.462,3.601,4.234,3.835,4.948   C3.972,5.363,3.747,5.81,3.333,5.946C2.918,6.083,2.473,5.858,2.336,5.443L2.336,5.443z"></path>
	<path fill="#FFFFFF" d="M25.125,19.195l-9.478,3.127c0.336,0.381,0.604,0.836,0.772,1.348c0.005,0.019,0.009,0.038,0.015,0.057   l9.185-3.031c0.414-0.137,0.64-0.582,0.503-0.997S25.538,19.06,25.125,19.195L25.125,19.195z"></path>
	<path fill="#FFFFFF" d="M15.669,23.92c-0.536-1.628-2.29-2.514-3.918-1.976c-1.627,0.537-2.51,2.29-1.974,3.919   c0.537,1.628,2.292,2.512,3.918,1.974C15.322,27.3,16.207,25.547,15.669,23.92z M13.109,26.365   c-0.815,0.268-1.691-0.174-1.96-0.989c-0.269-0.812,0.172-1.691,0.988-1.958c0.813-0.268,1.691,0.172,1.958,0.987   C14.365,25.219,13.923,26.097,13.109,26.365z"></path>
	<path fill="#FFFFFF" d="M22.729,7.305c-0.068-0.208-0.29-0.319-0.499-0.251l-10.125,3.34c-0.208,0.069-0.321,0.292-0.252,0.5   l3.218,9.751c0.068,0.208,0.291,0.32,0.498,0.252l10.127-3.343c0.207-0.068,0.32-0.292,0.252-0.498L22.729,7.305z M23.947,16.633   l-7.522,2.483c-0.153,0.049-0.318-0.034-0.369-0.188l-2.391-7.243c-0.051-0.154,0.034-0.32,0.188-0.371l7.521-2.482   c0.155-0.051,0.32,0.033,0.371,0.187l2.389,7.242C24.185,16.417,24.101,16.583,23.947,16.633z"></path>
	<path fill="#FFFFFF" d="M16.324,0.917c-0.043-0.133-0.188-0.205-0.32-0.16L9.53,2.893C9.397,2.936,9.326,3.079,9.371,3.212   l2.057,6.234c0.043,0.133,0.186,0.205,0.318,0.16l6.474-2.135c0.133-0.043,0.204-0.187,0.161-0.319L16.324,0.917z M16.602,6.618   l-4.062,1.341c-0.083,0.027-0.173-0.018-0.199-0.102l-1.291-3.912c-0.028-0.083,0.017-0.172,0.101-0.2l4.062-1.341   c0.083-0.027,0.173,0.018,0.201,0.102l1.289,3.912C16.73,6.501,16.685,6.59,16.602,6.618z"></path>
</g>
</svg>