<svg version="1.1" id="Layer_1" xmlns="http://www.w3.org/2000/svg" xmlns:xlink="http://www.w3.org/1999/xlink" x="0px" y="0px" width="28.35px" height="28.35px" viewBox="0 0 28.35 28.35" enable-background="new 0 0 28.35 28.35" xml:space="preserve" class="slide-icon style-svg replaced-svg svg-replaced-4">
<g>
	<g>
		<g>
			<g>
				<path fill="#FFFFFF" d="M11.026,27.639c-3.21,0-5.918-0.179-7.437-1.683c-0.846-0.842-1.259-2.01-1.259-3.573      c0-4.034,2.824-10.411,7.028-13.477l0.133-0.097h9.368l0.131,0.097c4.204,3.066,7.029,9.443,7.029,13.477      c0,1.563-0.411,2.731-1.259,3.573c-1.75,1.733-5.079,1.705-8.934,1.675c-0.537-0.005-1.092-0.009-1.652-0.009      c-0.561,0-1.116,0.004-1.652,0.009C12.015,27.635,11.514,27.639,11.026,27.639z M14.175,26.609c0.564,0,1.122,0.004,1.66,0.008      c3.629,0.029,6.762,0.056,8.212-1.381c0.646-0.641,0.96-1.574,0.96-2.854c0-1.894-0.674-4.331-1.852-6.688      c-1.236-2.474-2.876-4.553-4.631-5.874h-8.7c-1.753,1.32-3.393,3.4-4.629,5.874c-1.177,2.356-1.852,4.794-1.852,6.688      c0,1.279,0.313,2.213,0.959,2.854c1.449,1.437,4.583,1.41,8.212,1.381C13.053,26.613,13.61,26.609,14.175,26.609z M18.225,8.557      h-8.099c-0.775,0-1.316-0.354-1.316-0.861s0.541-0.861,1.316-0.861h8.099c0.773,0,1.316,0.354,1.316,0.861      S18.998,8.557,18.225,8.557z M18.882,6.582H9.467L9.324,6.457C9.061,6.228,6.755,4.166,6.769,2.474      c0.005-0.506,0.212-0.948,0.6-1.275c1.278-1.079,3.3-0.137,4.924,0.62c0.71,0.331,1.515,0.707,1.842,0.679l0.04-0.003      l0.041,0.003c0.327,0.027,1.131-0.349,1.841-0.679c1.623-0.757,3.646-1.699,4.925-0.62c0.387,0.328,0.596,0.769,0.6,1.275      c0.013,1.692-2.294,3.754-2.557,3.983L18.882,6.582z M9.851,5.569h8.647c0.86-0.785,2.078-2.209,2.07-3.087      c-0.002-0.214-0.075-0.371-0.24-0.51c-0.785-0.662-2.481,0.128-3.843,0.764c-0.96,0.447-1.723,0.802-2.31,0.773      c-0.588,0.029-1.349-0.327-2.309-0.773c-1.363-0.635-3.06-1.426-3.843-0.765c-0.165,0.14-0.239,0.297-0.241,0.511      C7.774,3.36,8.992,4.784,9.851,5.569z"></path>
			</g>
		</g>
	</g>
	<g>
		<path fill="#FFFFFF" d="M13.701,18.717l-0.717-0.309c-0.774-0.336-1.329-0.714-1.665-1.134c-0.336-0.417-0.503-0.964-0.503-1.636    c0-0.838,0.293-1.49,0.881-1.955c0.587-0.465,1.254-0.697,2.004-0.697v-1.22h0.968v1.22c1.573,0.232,2.451,1.155,2.632,2.768    l-1.396,0.233c-0.141-0.918-0.553-1.453-1.237-1.607v2.962l0.619,0.25c0.852,0.349,1.456,0.747,1.81,1.19    c0.356,0.447,0.533,1.018,0.533,1.715c0,0.84-0.293,1.538-0.879,2.1c-0.59,0.562-1.283,0.844-2.083,0.844v1.238h-0.968v-1.257    c-1.77-0.233-2.762-1.3-2.982-3.197l1.433-0.252c0.128,1.214,0.645,1.918,1.549,2.111V18.717z M13.701,16.976V14.4    c-0.349,0-0.662,0.1-0.939,0.3c-0.278,0.2-0.417,0.482-0.417,0.842c0,0.35,0.094,0.616,0.281,0.804    C12.813,16.534,13.171,16.742,13.701,16.976z M14.669,19.124v3c0.94-0.207,1.414-0.689,1.414-1.45c0-0.31-0.102-0.592-0.301-0.842    C15.583,19.579,15.211,19.344,14.669,19.124z"></path>
	</g>
</g>
</svg>