<svg version="1.1" id="Layer_1" xmlns="http://www.w3.org/2000/svg" xmlns:xlink="http://www.w3.org/1999/xlink" x="0px" y="0px" width="28.35px" height="28.35px" viewBox="0 0 28.35 28.35" enable-background="new 0 0 28.35 28.35" xml:space="preserve" class="slide-icon style-svg replaced-svg svg-replaced-14">
<path fill="#FFFFFF" d="M24.295,10.531l0.116,13.606c0,1.375-0.638,2.274-2.012,2.274L5.25,26.388c-1.373,0-2.495-0.876-2.495-2.251  L2.813,4.21c0-1.372,0.824-2.206,2.198-2.206h13.084l0.002-1.435H5.011c-2.008,0-3.642,1.634-3.642,3.64v19.926  c0,2.009,1.634,3.643,3.642,3.643h17.17c2.008,0,3.643-1.634,3.643-3.643V10.521L24.295,10.531z M24.673,24.137"></path>
<path fill-rule="evenodd" clip-rule="evenodd" fill="#FFFFFF" d="M11.474,16.9l4.597-2.323c0.485-0.04,0.966-0.235,1.338-0.611  l7.242-7.415l-3.02-3.021l-7.243,7.419c-0.372,0.372-0.572,0.852-0.608,1.34L11.474,16.9z"></path>
<path fill-rule="evenodd" clip-rule="evenodd" fill="#FFFFFF" d="M26.984,4.218c0.831-0.835,0.831-2.188,0-3.021  c-0.833-0.835-2.187-0.835-3.021,0l-0.607,0.607l3.021,3.02L26.984,4.218z"></path>
</svg>