<svg version="1.1" id="Layer_1" xmlns="http://www.w3.org/2000/svg" xmlns:xlink="http://www.w3.org/1999/xlink" x="0px" y="0px" width="28.35px" height="28.35px" viewBox="0 0 28.35 28.35" enable-background="new 0 0 28.35 28.35" xml:space="preserve" class="slide-icon style-svg replaced-svg svg-replaced-7">
<g id="GESTÃO_DE_CLIENTES_-_CRM">
	<g>
		<path fill="#FFFFFF" d="M16.544,23.234c-3.5,0-7,0.009-10.5-0.011c-0.5-0.003-0.704,0.096-0.678,0.648    c0.046,1.013,0.015,2.029,0.013,3.045c-0.001,0.626-0.07,1.236-0.896,1.23c-0.842-0.006-0.859-0.651-0.866-1.256    c-0.011-1.042-0.022-2.085,0.006-3.126c0.011-0.422-0.119-0.559-0.541-0.54C2.39,23.256,1.692,23.26,1,23.218    c-0.535-0.033-1.004-0.208-1-0.896c0.003-0.693,0.527-0.745,0.998-0.779c0.665-0.049,1.337-0.05,2.002-0.01    c0.49,0.028,0.637-0.117,0.627-0.619c-0.033-1.656-0.012-3.312-0.012-4.969c0-4.648,0-9.297,0-13.945    c0-0.187-0.005-0.374,0.001-0.561c0.02-0.614,0.066-1.255,0.895-1.235c0.807,0.02,0.869,0.642,0.869,1.266    c0,6.412,0.01,12.824-0.016,19.235c-0.003,0.657,0.144,0.837,0.821,0.835c6.84-0.028,13.68-0.019,20.519-0.014    c0.345,0,0.691,0.038,1.034,0.083c0.397,0.053,0.608,0.274,0.61,0.701c0.001,0.393-0.137,0.667-0.516,0.807    c-0.335,0.124-0.68,0.118-1.028,0.118C23.384,23.233,19.964,23.233,16.544,23.234z"></path>
		<path fill="#FFFFFF" d="M13.267,8.945c-0.804,1.931-1.58,3.792-2.355,5.655c-0.33,0.793-0.713,1.524-0.396,2.484    c0.262,0.796-0.385,1.607-1.181,1.822c-0.842,0.226-1.708-0.197-2.039-0.998c-0.329-0.795-0.042-1.793,0.748-2.121    c0.545-0.227,0.748-0.595,0.943-1.073c0.857-2.096,1.737-4.182,2.605-6.274c0.129-0.312,0.239-0.589,0.087-0.979    c-0.315-0.812-0.062-1.55,0.554-2c0.596-0.436,1.409-0.438,2.019-0.003c0.615,0.437,0.858,1.175,0.568,1.989    c-0.118,0.333-0.064,0.521,0.151,0.77c1.677,1.938,3.353,3.876,4.997,5.841c0.391,0.466,0.553,0.377,0.83-0.083    c0.73-1.21,1.502-2.395,2.258-3.588c0.153-0.243,0.274-0.435,0.166-0.788c-0.346-1.125,0.113-1.985,1.123-2.277    c0.859-0.249,1.757,0.221,2.049,1.072c0.33,0.959-0.091,1.798-1.157,2.192c-0.316,0.117-0.464,0.329-0.62,0.576    c-0.669,1.06-1.339,2.119-2.011,3.177c-0.38,0.599-0.733,1.146-0.66,1.963c0.088,0.984-0.871,1.656-1.912,1.53    c-0.939-0.113-1.63-1.022-1.401-1.956c0.116-0.477,0.009-0.773-0.304-1.126C16.647,12.854,14.995,10.933,13.267,8.945z"></path>
	</g>
</g>
</svg>