<svg version="1.1" id="Layer_1" xmlns="http://www.w3.org/2000/svg" xmlns:xlink="http://www.w3.org/1999/xlink" x="0px" y="0px" width="28.35px" height="28.35px" viewBox="0 0 28.35 28.35" enable-background="new 0 0 28.35 28.35" xml:space="preserve" class="slide-icon style-svg replaced-svg svg-replaced-10">
<g id="Emissor_de_Conhecimento_de_Transporte_Eletrônico_1_">
	<g>
		<path fill="#FFFFFF" d="M28.344,20.976c-0.001-0.027-0.383-10.923-2.41-14.167c-1.541-2.465-3.818-3.804-7.06-3.804h-2.736    c-0.438,0-0.791,0.354-0.791,0.791v10.997l-14.558,0.07C0.351,14.861,0,15.215,0,15.65v5.383c0,0.809,0.657,1.468,1.466,1.468    h1.501c0.302,1.617,1.722,2.845,3.427,2.845c1.702,0,3.123-1.228,3.425-2.845h8.907c0.302,1.617,1.722,2.845,3.425,2.845    c1.704,0,3.125-1.228,3.427-2.845h1.3c0.81,0,1.469-0.659,1.469-1.468C28.346,21.014,28.346,20.994,28.344,20.976L28.344,20.976z     M25.674,10.633h-4.737V4.822C23.945,5.585,25.097,8.068,25.674,10.633L25.674,10.633z M1.578,16.441h13.768v4.479H9.75    c-0.413-1.467-1.76-2.547-3.356-2.547c-1.597,0-2.947,1.08-3.356,2.547H1.578V16.441z M6.394,23.766    c-1.052,0-1.906-0.854-1.906-1.905s0.854-1.906,1.906-1.906c1.05,0,1.904,0.855,1.904,1.906S7.444,23.766,6.394,23.766    L6.394,23.766z M22.151,23.766c-1.05,0-1.904-0.854-1.904-1.905s0.854-1.906,1.904-1.906c1.052,0,1.906,0.855,1.906,1.906    S23.203,23.766,22.151,23.766L22.151,23.766z M25.508,20.92c-0.411-1.466-1.76-2.546-3.356-2.546s-2.945,1.08-3.356,2.546h-1.868    V4.584h1.947c0.165,0,0.324,0.004,0.482,0.012v6.828c0,0.436,0.353,0.79,0.789,0.79h5.822c0.679,4.228,0.787,5.718,0.787,8.707    L25.508,20.92L25.508,20.92L25.508,20.92z"></path>
	</g>
</g>
</svg>