<svg version="1.1" id="Layer_1" xmlns="http://www.w3.org/2000/svg" xmlns:xlink="http://www.w3.org/1999/xlink" x="0px" y="0px" width="28.35px" height="28.35px" viewBox="0 0 28.35 28.35" enable-background="new 0 0 28.35 28.35" xml:space="preserve" class="slide-icon style-svg replaced-svg svg-replaced-18">
<g>
	<g>
		<path fill="#FFFFFF" d="M25.434,27.121L24.051,6.04c-0.031-0.464-0.416-0.825-0.881-0.825h-3.859V4.647    c0-2.432-1.978-4.41-4.41-4.41h-1.517c-2.433,0-4.41,1.979-4.41,4.41v0.567h-3.86c-0.465,0-0.85,0.361-0.881,0.825L2.849,27.173    c-0.018,0.243,0.068,0.482,0.235,0.659c0.167,0.179,0.4,0.28,0.644,0.28h20.831c0.485,0,0.881-0.395,0.881-0.883    C25.439,27.194,25.438,27.157,25.434,27.121L25.434,27.121z M10.737,4.647c0-1.458,1.188-2.646,2.646-2.646H14.9    c1.46,0,2.646,1.187,2.646,2.646v0.567h-6.81V4.647z M4.671,26.347L5.94,6.979h3.034v0.787c-0.628,0.322-1.06,0.975-1.06,1.728    c0,1.07,0.871,1.94,1.94,1.94c1.072,0,1.943-0.87,1.943-1.94c0-0.752-0.432-1.406-1.06-1.728V6.979h6.81v0.787    c-0.628,0.322-1.058,0.975-1.058,1.728c0,1.07,0.869,1.94,1.94,1.94c1.069,0,1.94-0.87,1.94-1.94c0-0.752-0.432-1.406-1.06-1.728    V6.979h3.033l1.271,19.367H4.671z M4.671,26.347"></path>
	</g>
</g>
</svg>