<svg version="1.1" id="Layer_1" xmlns="http://www.w3.org/2000/svg" xmlns:xlink="http://www.w3.org/1999/xlink" x="0px" y="0px" width="28.35px" height="28.35px" viewBox="0 0 28.35 28.35" enable-background="new 0 0 28.35 28.35" xml:space="preserve" class="slide-icon style-svg replaced-svg svg-replaced-6">
<g id="GERENCIAMENTO_DE_ATIVIDADES_DE_SERVIÇOS">
	<g>
		<path fill="#FFFFFF" d="M27.628,25.068l-5.957-6.664c0.505-1.541,0.203-3.302-0.954-4.595c-0.982-1.1-2.396-1.663-3.877-1.543    c-0.107,0.008-0.201,0.077-0.242,0.178c-0.04,0.1-0.019,0.215,0.052,0.296l1.848,2.063l-0.516,2.242l-2.476,0.255l-1.845-2.063    c-0.072-0.081-0.185-0.114-0.289-0.085c-0.104,0.027-0.181,0.129-0.201,0.235c-0.284,1.457,0.117,2.908,1.1,4.01    c1.158,1.293,2.874,1.789,4.46,1.46l5.956,6.663c0.861,0.963,1.937,1.129,2.899,0.269C28.548,26.928,28.487,26.031,27.628,25.068"></path>
		<path fill="#FFFFFF" d="M19.792,26.094c-1.844,0.021-11.5,0.014-13.343,0.002c-0.178-0.001-0.417,0.125-0.544-0.14    c0.143-0.102,0.28-0.191,0.41-0.29c1.216-0.926,1.773-2.164,1.574-3.668c-0.206-1.567-1.119-2.632-2.603-3.181    c-0.313-0.116-0.593-0.148-0.593-0.614c-0.001-0.495,0.341-0.47,0.629-0.572c1.613-0.573,2.646-2.044,2.631-3.75    c-0.015-1.656-1.071-3.114-2.665-3.65c-0.31-0.104-0.597-0.133-0.596-0.602c0-0.488,0.334-0.479,0.625-0.59    c1.482-0.565,2.38-1.638,2.576-3.204C8.078,4.36,7.53,3.143,6.348,2.217C6.2,2.101,5.948,2.073,5.921,1.791    c0.125-0.01,0.237-0.027,0.351-0.027c5.857-0.001,11.715-0.003,17.573,0.001c0.791,0.001,0.91,0.138,0.911,0.959    c0.001,3.524-0.002,12.149,0.005,15.674c0,0.241-0.06,0.472,0.168,0.708c0.468,0.485,0.979,1.308,1.649,1.848    c0-0.304-0.023-1.156-0.023-1.38c0-3.78-0.043-12.664,0.021-16.443c0.025-1.424-0.356-2.495-1.68-3.13C18.128,0,11.36,0,4.592,0    c-0.769,0.423-1.435,0.928-1.62,1.866c-0.223,1.13-0.103,1.3,1.015,1.358C4.103,3.229,4.22,3.235,4.334,3.256    c1.114,0.202,1.854,1.123,1.797,2.235C6.078,6.554,5.253,7.374,4.136,7.465c-0.232,0.019-0.468,0.029-0.699,0.01    C3.034,7.442,2.915,7.62,2.926,8.007c0.024,0.816,0.007,1.634,0.007,2.45c0,1.214,0,1.212,1.162,1.336    c0.138,0.015,0.275,0.049,0.411,0.082c1.015,0.245,1.648,1.04,1.647,2.062c-0.001,1.021-0.636,1.82-1.657,2.05    c-0.292,0.065-0.604,0.109-0.899,0.084c-0.504-0.044-0.714,0.094-0.676,0.646c0.05,0.743,0.013,1.493,0.013,2.239    c0,1.313,0,1.313,1.282,1.451c1.044,0.112,1.837,0.9,1.915,1.905c0.08,1.036-0.536,1.916-1.534,2.229    c-0.414,0.13-0.831,0.095-1.249,0.102c-0.223,0.004-0.376,0.013-0.422,0.316c-0.243,1.63,0.837,2.902,2.498,2.904    c1.68,0.003,3.36,0.001,5.041,0.001c1.133,0,10.077,0,11.306,0c-0.384-0.48-0.661-0.798-1.002-1.275    C20.498,26.213,20.232,26.089,19.792,26.094z"></path>
		<path fill="#FFFFFF" d="M1.398,6.434C1.838,6.466,2.283,6.44,2.725,6.44c0.443,0,0.886,0.013,1.328-0.003    c0.638-0.022,0.977-0.401,1.061-1c0.075-0.531-0.337-1.078-0.911-1.134C3.23,4.208,2.248,4.201,1.276,4.309    C0.691,4.374,0.33,4.889,0.396,5.457C0.466,6.04,0.807,6.392,1.398,6.434z"></path>
		<path fill="#FFFFFF" d="M5.117,22.471c0.012-0.56-0.44-1.005-1.023-1.039c-0.441-0.027-0.885-0.006-1.327-0.005    c-0.466,0-0.935-0.033-1.396,0.009c-0.585,0.054-0.937,0.412-0.971,1.002c-0.035,0.586,0.247,1.028,0.836,1.107    c0.993,0.134,2,0.116,2.994,0.011C4.819,23.492,5.105,23.04,5.117,22.471z"></path>
		<path fill="#FFFFFF" d="M1.439,15c0.441,0.021,0.884,0.004,1.326,0.004c0-0.001,0-0.002,0-0.003c0.442,0,0.885,0.019,1.326-0.004    c0.583-0.031,1.017-0.477,1.033-1.024c0.017-0.582-0.42-1.083-1.026-1.101c-0.883-0.027-1.769-0.024-2.652-0.004    c-0.627,0.014-1.05,0.465-1.055,1.063C0.387,14.523,0.813,14.972,1.439,15z"></path>
	</g>
</g>
</svg>