<svg version="1.1" id="Layer_1" xmlns="http://www.w3.org/2000/svg" xmlns:xlink="http://www.w3.org/1999/xlink" x="0px" y="0px" width="28.35px" height="28.35px" viewBox="0 0 28.35 28.35" enable-background="new 0 0 28.35 28.35" xml:space="preserve" class="slide-icon style-svg replaced-svg svg-replaced-11">
<g id="Integrador_Contábil">
	<g>
		<path fill="#FFFFFF" d="M19.146,10.602c-0.041-0.548-0.447-0.493-0.8-0.493c-4.309-0.006-8.62-0.004-12.929-0.004    c-0.398,0-0.794,0.002-0.802,0.565c-0.007,0.562,0.367,0.575,0.78,0.573c2.156-0.006,4.312-0.002,6.467-0.002    c2.195,0,4.39-0.007,6.585,0.006C18.914,11.25,19.186,11.126,19.146,10.602z"></path>
		<path fill="#FFFFFF" d="M5.281,6.366c1.614-0.004,3.228-0.004,4.841,0c0.388,0,0.674-0.088,0.671-0.565    c0-0.463-0.256-0.582-0.66-0.576C9.326,5.233,8.521,5.227,7.713,5.227c-0.808,0-1.614,0.008-2.421-0.004    c-0.4-0.006-0.672,0.103-0.676,0.563C4.611,6.246,4.879,6.368,5.281,6.366z"></path>
		<g>
			<path fill="#FFFFFF" d="M18.573,18.824c0,0.629,0.461,0.991,1.394,1.181v-2.246C19.119,17.785,18.573,18.285,18.573,18.824z"></path>
			<path fill="#FFFFFF" d="M20.709,21.793v2.481c0.745-0.051,1.528-0.403,1.528-1.228C22.237,22.192,21.38,21.944,20.709,21.793z"></path>
			<path fill="#FFFFFF" d="M23.17,14.668c-0.329-0.157-0.426-0.331-0.422-0.673c0.016-1.795,0.012-3.59,0.006-5.385     c-0.004-0.969-0.291-1.834-1.06-2.471c-2.142-1.775-4.292-3.539-6.445-5.3c-0.693-0.567-1.495-0.841-2.4-0.839     C9.584,0.006,6.317,0.001,3.051,0.001c-1.456,0-2.01,0.554-2.01,2.006c-0.002,3.59,0,7.178,0,10.768     c0,3.63-0.003,7.259,0.002,10.889c0.002,1.205,0.562,1.774,1.761,1.826c0.162,0.006,0.323,0,0.483,0     c3.47,0,6.938,0.01,10.406-0.01c0.465-0.002,0.772,0.136,1.083,0.482c1.655,1.841,3.762,2.604,6.192,2.329     c3.243-0.368,5.723-2.823,6.252-6.068C27.72,19.165,26.055,16.034,23.17,14.668z M14.837,2.323     c0.146-0.063,0.245,0.101,0.348,0.189c1.595,1.357,3.187,2.713,4.774,4.076c0.126,0.109,0.374,0.197,0.282,0.406     c-0.081,0.185-0.317,0.128-0.495,0.13c-0.725,0.002-1.45,0.002-2.175,0.002c-0.726,0-1.45-0.012-2.174,0.001     c-0.486,0.01-0.689-0.203-0.683-0.689c0.016-1.228,0.003-2.457,0.007-3.685C14.723,2.603,14.656,2.399,14.837,2.323z      M15.838,15.014c-3.489,0.002-6.979,0.002-10.468,0c-0.331-0.002-0.666-0.028-0.747,0.414c-0.086,0.463,0.14,0.695,0.709,0.695     c2.963,0.002,5.929,0,8.894,0c0.197,0,0.394,0,0.691,0c-0.553,0.715-1.076,1.346-1.377,2.114     c-0.095,0.242-0.201,0.482-0.284,0.731c-0.3,0.908-0.296,0.908-1.281,0.908c-2.199,0-4.398,0-6.597,0     c-0.305,0.002-0.623-0.014-0.741,0.366c-0.149,0.48,0.093,0.765,0.68,0.767c2.219,0.004,4.439,0.002,6.658,0.002     c0.918,0,0.916,0,0.989,0.922c0.059,0.769,0.29,1.496,0.625,2.301c-0.301,0-0.522,0-0.743,0c-3.208,0-6.416,0-9.624,0     c-0.963,0-0.965,0-0.965-0.941c0-5.828,0-11.658,0-17.489c0-1.231-0.002-2.461,0.002-3.692C2.262,1.28,2.329,1.213,3.145,1.213     c3.148,0,6.295,0,9.442,0c0.798,0,0.918,0.112,0.92,0.902c0.006,1.472,0,2.946,0.002,4.418c0.004,1.16,0.634,1.796,1.793,1.8     c1.855,0.006,3.712,0.014,5.565-0.006c0.471-0.006,0.645,0.142,0.639,0.621c-0.021,1.552-0.018,3.107,0,4.66     c0.004,0.376-0.093,0.49-0.479,0.439c-1.563-0.212-3.048,0.067-4.429,0.841C16.351,15.029,16.099,15.014,15.838,15.014z      M20.709,25.553v0.774c0,0.214-0.162,0.429-0.374,0.429c-0.209,0-0.368-0.214-0.368-0.429v-0.774     c-2.099-0.05-3.14-1.316-3.14-2.309c0-0.497,0.299-0.786,0.767-0.786c1.391,0,0.309,1.729,2.373,1.816v-2.62     c-1.84-0.337-2.953-1.152-2.953-2.541c0-1.703,1.403-2.582,2.953-2.633v-0.668c0-0.21,0.159-0.425,0.368-0.425     c0.212,0,0.374,0.215,0.374,0.425v0.668c0.967,0.028,2.953,0.64,2.953,1.868c0,0.49-0.362,0.777-0.782,0.777     c-0.809,0-0.795-1.341-2.171-1.367v2.382c1.641,0.352,3.09,0.841,3.09,2.767C23.799,24.586,22.558,25.439,20.709,25.553z"></path>
		</g>
	</g>
</g>
</svg>