<svg version="1.1" id="Layer_1" xmlns="http://www.w3.org/2000/svg" xmlns:xlink="http://www.w3.org/1999/xlink" x="0px" y="0px" width="28.35px" height="28.35px" viewBox="0 0 28.35 28.35" enable-background="new 0 0 28.35 28.35" xml:space="preserve" class="slide-icon style-svg replaced-svg svg-replaced-9">
<g id="Emissor_de_Manifesto_de_Carga_Eletrônica__x28_MDF-e_x29_">
	<g>
		<path fill="#FFFFFF" d="M6.703,2.865H3.387c-0.408,0-0.739,0.331-0.739,0.739v3.316c0,0.408,0.331,0.739,0.739,0.739h3.316    c0.408,0,0.739-0.331,0.739-0.739V3.604C7.442,3.195,7.111,2.865,6.703,2.865 M6.769,6.985H3.322V3.538h3.447V6.985z"></path>
		<path fill="#FFFFFF" d="M12.845,2.865H9.529c-0.408,0-0.739,0.331-0.739,0.739v3.316c0,0.408,0.331,0.739,0.739,0.739h3.316    c0.408,0,0.739-0.331,0.739-0.739V3.604C13.583,3.195,13.253,2.865,12.845,2.865 M12.91,6.985H9.463V3.538h3.447V6.985z"></path>
		<path fill="#FFFFFF" d="M12.845,9.015H9.529c-0.408,0-0.739,0.331-0.739,0.739v3.316c0,0.408,0.331,0.739,0.739,0.739h3.316    c0.408,0,0.739-0.331,0.739-0.739V9.754C13.583,9.346,13.253,9.015,12.845,9.015 M12.91,13.136H9.463V9.688h3.447V13.136z"></path>
		<path fill="#FFFFFF" d="M6.694,9.015H3.378c-0.408,0-0.738,0.331-0.738,0.739v3.316c0,0.408,0.331,0.739,0.738,0.739h3.316    c0.408,0,0.739-0.331,0.739-0.739V9.754C7.433,9.346,7.102,9.015,6.694,9.015 M6.76,13.136H3.312V9.688H6.76V13.136z"></path>
		<g>
			<path fill="#FFFFFF" d="M28.345,20.603c-0.002-0.027-0.384-10.923-2.411-14.167c-1.541-2.465-3.818-3.804-7.059-3.804h-2.737     c-0.438,0-0.791,0.354-0.791,0.791v10.997l-14.558,0.07C0.351,14.488,0,14.842,0,15.278v5.382c0,0.809,0.657,1.468,1.466,1.468     h1.501c0.302,1.617,1.722,2.846,3.427,2.846c1.702,0,3.123-1.229,3.425-2.846h8.907c0.302,1.617,1.722,2.846,3.425,2.846     c1.704,0,3.125-1.229,3.427-2.846h1.3c0.81,0,1.469-0.659,1.469-1.468C28.347,20.641,28.347,20.621,28.345,20.603L28.345,20.603z      M25.674,10.261h-4.737V4.449C23.945,5.212,25.097,7.695,25.674,10.261L25.674,10.261z M1.578,16.068h13.768v4.479H9.75     c-0.413-1.467-1.76-2.547-3.356-2.547s-2.947,1.08-3.356,2.547H1.578V16.068z M6.394,23.393c-1.052,0-1.906-0.854-1.906-1.905     s0.854-1.906,1.906-1.906c1.05,0,1.904,0.855,1.904,1.906S7.444,23.393,6.394,23.393L6.394,23.393z M22.151,23.393     c-1.05,0-1.904-0.854-1.904-1.905s0.854-1.906,1.904-1.906c1.052,0,1.906,0.855,1.906,1.906S23.203,23.393,22.151,23.393     L22.151,23.393z M25.508,20.547c-0.411-1.466-1.76-2.546-3.356-2.546s-2.945,1.08-3.356,2.546h-1.868V4.211h1.948     c0.164,0,0.323,0.004,0.481,0.012v6.828c0,0.437,0.353,0.791,0.789,0.791h5.822c0.679,4.227,0.787,5.717,0.787,8.707     L25.508,20.547L25.508,20.547L25.508,20.547z"></path>
		</g>
	</g>
</g>
</svg>