<svg version="1.1" id="Layer_1" xmlns="http://www.w3.org/2000/svg" xmlns:xlink="http://www.w3.org/1999/xlink" x="0px" y="0px" width="28.35px" height="28.35px" viewBox="0 0 28.35 28.35" enable-background="new 0 0 28.35 28.35" xml:space="preserve" class="slide-icon style-svg replaced-svg svg-replaced-15">
<g>
	<path fill="#FFFFFF" d="M22.154,27.715c1.381,0,2.496-1.119,2.496-2.496V3.131c0-1.377-1.115-2.497-2.496-2.497H6.193   c-1.375,0-2.494,1.12-2.494,2.497v22.088c0,1.383,1.119,2.496,2.494,2.496H22.154L22.154,27.715z M14.177,1.567   c0.792,0,1.434,0.646,1.434,1.438c0,0.792-0.642,1.432-1.434,1.432s-1.438-0.64-1.438-1.432   C12.739,2.213,13.385,1.567,14.177,1.567L14.177,1.567z M23.052,25.219c0,0.496-0.401,0.898-0.897,0.898H6.193   c-0.494,0-0.896-0.402-0.896-0.898V6.33c0-0.49,0.402-0.891,0.896-0.891h15.961c0.496,0,0.897,0.401,0.897,0.891V25.219z    M23.052,6.33"></path>
	<path fill="#FFFFFF" d="M14.177,17.912c2.466,0,4.936-0.408,4.936-1.221c0-1.371-1.585-3.226-3.72-3.767   c0.896-0.601,1.51-1.782,1.51-2.851c0-1.506-1.226-2.726-2.726-2.726c-1.506,0-2.726,1.22-2.726,2.726   c0,1.068,0.615,2.25,1.506,2.851c-2.135,0.542-3.715,2.396-3.715,3.767C9.242,17.504,11.707,17.912,14.177,17.912L14.177,17.912z    M14.177,19.176"></path>
	<path fill="#FFFFFF" d="M20.737,19.832H7.611c-0.13,0-0.234,0.168-0.234,0.371c0,0.209,0.104,0.375,0.234,0.375h13.126   c0.131,0,0.235-0.166,0.235-0.375C20.973,20,20.868,19.832,20.737,19.832L20.737,19.832z M20.737,19.832"></path>
	<path fill="#FFFFFF" d="M20.737,21.832H7.611c-0.13,0-0.234,0.168-0.234,0.371c0,0.209,0.104,0.377,0.234,0.377h13.126   c0.131,0,0.235-0.168,0.235-0.377C20.973,22,20.868,21.832,20.737,21.832L20.737,21.832z M20.737,21.832"></path>
	<path fill="#FFFFFF" d="M20.737,23.832H7.611c-0.13,0-0.234,0.168-0.234,0.371c0,0.209,0.104,0.375,0.234,0.375h13.126   c0.131,0,0.235-0.166,0.235-0.375C20.973,24,20.868,23.832,20.737,23.832L20.737,23.832z M20.737,23.832"></path>
</g>
</svg>