<svg version="1.1" id="Layer_1" xmlns="http://www.w3.org/2000/svg" xmlns:xlink="http://www.w3.org/1999/xlink" x="0px" y="0px" width="28.35px" height="28.35px" viewBox="0 0 28.35 28.35" enable-background="new 0 0 28.35 28.35" xml:space="preserve" class="slide-icon style-svg replaced-svg svg-replaced-12">
<g id="Emissor_de_Nota_Fiscal_ao_Consumidor_Eletrônica">
	<g>
		<path fill="#FFFFFF" d="M10.823,6.039c0,0.219-0.18,0.399-0.401,0.399H5.177c-0.219,0-0.401-0.18-0.401-0.399V5.772    c0-0.22,0.182-0.4,0.401-0.4h5.245c0.221,0,0.401,0.18,0.401,0.4V6.039z"></path>
		<path fill="#FFFFFF" d="M19.075,10.864c0,0.221-0.18,0.4-0.401,0.4H5.177c-0.219,0-0.401-0.18-0.401-0.4v-0.266    c0-0.22,0.182-0.4,0.401-0.4h13.497c0.222,0,0.401,0.18,0.401,0.4V10.864L19.075,10.864z"></path>
		<path fill="#FFFFFF" d="M22.617,14.486V8.383c0-0.731-0.426-1.634-0.991-2.099l-6.468-5.318c-0.536-0.441-1.462-0.773-2.156-0.773    H2.829c-0.879,0-1.595,0.715-1.595,1.595v21.893c0,1.644,1.553,1.644,1.591,1.644h11.55c1.291,1.719,3.345,2.832,5.662,2.832    c3.909,0,7.079-3.169,7.079-7.078C27.116,18.08,25.251,15.518,22.617,14.486z M14.715,2.603c0-0.392,0.324-0.091,0.324-0.091    l5.127,4.38c0,0,0.328,0.323-0.233,0.323h-4.802c-0.229,0-0.416-0.187-0.416-0.415V2.603L14.715,2.603z M5.177,16.09h9.841    c-0.998,1.004-1.695,2.306-1.95,3.759H5.177c-0.219,0-0.401,0.18-0.401,0.399v0.268c0,0.22,0.182,0.399,0.401,0.399h7.786    c-0.002,0.056-0.002,0.108-0.002,0.164c0,1.097,0.25,2.136,0.696,3.063H2.714c-0.067,0-0.298-0.019-0.298-0.342V1.788    c0-0.224,0.19-0.414,0.413-0.414h10.173c0.174,0,0.534,0.092,0.534,0.584V6.8c0,0.881,0.715,1.596,1.595,1.596h6.01    c0.11,0,0.294,0.075,0.294,0.341l0.002,5.403c-0.453-0.091-0.92-0.138-1.399-0.138c-1.342,0-2.597,0.374-3.665,1.022H5.177    c-0.219,0-0.401,0.18-0.401,0.399v0.268C4.775,15.91,4.958,16.09,5.177,16.09z M23.365,25.349    c-0.751,0.597-1.759,0.896-3.022,0.896c-1.435,0-2.576-0.453-3.43-1.358c-0.854-0.905-1.278-2.159-1.278-3.759    c0-1.62,0.426-2.881,1.282-3.783c0.855-0.901,2.014-1.354,3.475-1.354c1.192,0,2.145,0.257,2.85,0.772    c0.705,0.514,1.212,1.298,1.52,2.351l-2.56,0.461c-0.086-0.51-0.282-0.896-0.587-1.154c-0.305-0.258-0.699-0.388-1.186-0.388    c-0.648,0-1.163,0.223-1.548,0.67c-0.385,0.446-0.579,1.193-0.579,2.239c0,1.165,0.196,1.987,0.587,2.467    c0.393,0.48,0.918,0.721,1.576,0.721c0.492,0,0.896-0.141,1.209-0.42c0.313-0.281,0.537-0.763,0.666-1.446l2.549,0.434    C24.624,23.866,24.115,24.75,23.365,25.349z"></path>
	</g>
</g>
</svg>