<svg version="1.1" id="Layer_1" xmlns="http://www.w3.org/2000/svg" xmlns:xlink="http://www.w3.org/1999/xlink" x="0px" y="0px" width="28.35px" height="28.35px" viewBox="0 0 28.35 28.35" enable-background="new 0 0 28.35 28.35" xml:space="preserve" class="slide-icon style-svg replaced-svg svg-replaced-13">
<g>
	<path fill="#FFFFFF" d="M11.291,6.164c0,0.211-0.173,0.384-0.385,0.384h-5.04c-0.211,0-0.384-0.173-0.384-0.384V5.908   c0-0.212,0.173-0.385,0.384-0.385h5.04c0.212,0,0.385,0.173,0.385,0.385V6.164z M11.291,6.164"></path>
	<path fill="#FFFFFF" d="M19.222,10.8c0,0.211-0.172,0.385-0.385,0.385H5.866c-0.211,0-0.384-0.174-0.384-0.385v-0.256   c0-0.211,0.173-0.384,0.384-0.384h12.971c0.213,0,0.385,0.173,0.385,0.384V10.8z M19.222,10.8"></path>
	<g>
		<path fill="#FFFFFF" d="M22.624,14.281V8.417c0-0.703-0.407-1.57-0.952-2.017l-6.215-5.111c-0.514-0.423-1.404-0.742-2.071-0.742    H3.611c-0.845,0-1.533,0.688-1.533,1.533v21.038c0,1.577,1.494,1.577,1.529,1.577h11.098c1.241,1.653,3.216,2.723,5.441,2.723    c3.756,0,6.801-3.046,6.801-6.801C26.947,17.733,25.155,15.271,22.624,14.281z M15.033,2.862c0-0.376,0.312-0.088,0.312-0.088    l4.926,4.208c0,0,0.315,0.311-0.227,0.311h-4.613c-0.219,0-0.397-0.179-0.397-0.398V2.862z M5.866,15.822h9.457    c-0.959,0.965-1.63,2.214-1.875,3.612H5.866c-0.211,0-0.384,0.172-0.384,0.383v0.256c0,0.214,0.173,0.386,0.384,0.386h7.482    c-0.002,0.052-0.002,0.104-0.002,0.157c0,1.054,0.24,2.052,0.668,2.943H3.5c-0.063,0-0.286-0.019-0.286-0.328V2.079    c0-0.216,0.182-0.398,0.397-0.398h9.775c0.167,0,0.511,0.088,0.511,0.561v4.653c0,0.846,0.688,1.533,1.533,1.533h5.776    c0.104,0,0.284,0.073,0.284,0.328v5.192c-0.436-0.088-0.885-0.134-1.345-0.134c-1.289,0-2.495,0.359-3.523,0.982H5.866    c-0.211,0-0.384,0.173-0.384,0.384v0.256C5.482,15.648,5.655,15.822,5.866,15.822z M18.749,22.356    c0.166,0.323,0.387,0.383,0.659,0.548c0.277,0.162,0.58,0.244,0.912,0.244c0.225,0,0.427-0.024,0.61-0.076    c0.187-0.053,0.362-0.135,0.538-0.247c0.172-0.112,0.331-0.231,0.477-0.358c0.144-0.128,0.335-0.3,0.566-0.521    c0.096-0.082,0.231-0.123,0.409-0.123c0.19,0,0.346,0.057,0.462,0.161c0.119,0.104,0.18,0.25,0.18,0.441    c0,0.168-0.067,0.366-0.198,0.59c-0.131,0.225-0.331,0.441-0.599,0.647c-0.266,0.209-0.598,0.379-1.002,0.516    c-0.403,0.139-0.863,0.206-1.389,0.206c-1.194,0-2.125-0.343-2.791-1.022c-0.663-0.683-0.994-1.608-0.994-2.776    c0-0.554,0.082-1.062,0.244-1.533c0.163-0.471,0.402-0.871,0.717-1.209c0.313-0.335,0.7-0.591,1.158-0.772    c0.46-0.18,0.971-0.264,1.529-0.264c0.729,0,1.354,0.167,1.873,0.474s0.912,0.725,1.171,1.211c0.26,0.49,0.389,1.032,0.389,1.533    c0,0.471-0.135,0.867-0.402,1.004c-0.268,0.14-0.646,0.393-1.133,0.393h-3.644C18.496,21.422,18.582,22.033,18.749,22.356z"></path>
		<path fill="#FFFFFF" d="M20.179,18.104c-0.464,0-0.845,0.172-1.145,0.491c-0.299,0.32-0.479,0.81-0.542,1.441h3.376    c-0.044-0.632-0.217-1.129-0.512-1.443C21.058,18.275,20.665,18.104,20.179,18.104z"></path>
	</g>
</g>
</svg>