<svg version="1.1" id="Layer_1" xmlns="http://www.w3.org/2000/svg" xmlns:xlink="http://www.w3.org/1999/xlink" x="0px" y="0px" width="28.35px" height="28.35px" viewBox="0 0 28.35 28.35" enable-background="new 0 0 28.35 28.35" xml:space="preserve" class="slide-icon style-svg replaced-svg svg-replaced-8">
<g id="Emissor_de_Nota_Fiscal_de_Serviço_Eletrônica__x28_NFS-e_x29_">
	<g>
		<path fill="#FFFFFF" d="M5.402,6.331h5.316c0.225,0,0.407-0.182,0.407-0.404V5.655c0-0.223-0.182-0.406-0.407-0.406H5.402    c-0.222,0-0.407,0.182-0.407,0.406v0.271C4.995,6.148,5.18,6.331,5.402,6.331z"></path>
		<path fill="#FFFFFF" d="M5.402,11.223h13.682c0.225,0,0.407-0.183,0.407-0.406v-0.27c0-0.223-0.183-0.405-0.407-0.405H5.402    c-0.222,0-0.407,0.182-0.407,0.405v0.27C4.995,11.04,5.18,11.223,5.402,11.223z"></path>
		<path fill="#FFFFFF" d="M23.081,14.489V8.303c0-0.742-0.431-1.656-1.004-2.128L15.52,0.784C14.978,0.336,14.038,0,13.334,0H3.022    C2.13,0,1.405,0.725,1.405,1.617v22.194c0,1.665,1.574,1.665,1.612,1.665h11.709c1.309,1.743,3.392,2.871,5.74,2.871    c3.962,0,7.175-3.213,7.175-7.175C27.642,18.132,25.751,15.533,23.081,14.489z M15.071,2.442c0-0.396,0.329-0.092,0.329-0.092    l5.196,4.44c0,0,0.332,0.327-0.236,0.327h-4.868c-0.232,0-0.421-0.189-0.421-0.42V2.442L15.071,2.442z M13.401,19.925H5.402    c-0.222,0-0.407,0.183-0.407,0.405v0.271c0,0.223,0.185,0.405,0.407,0.405h7.893c-0.002,0.057-0.002,0.111-0.002,0.166    c0,1.112,0.253,2.166,0.705,3.106H2.906c-0.068,0-0.303-0.02-0.303-0.347V1.617c0-0.227,0.192-0.419,0.419-0.419h10.312    c0.177,0,0.542,0.093,0.542,0.592v4.908c0,0.893,0.725,1.618,1.616,1.618h6.092c0.112,0,0.299,0.076,0.299,0.346l0.002,5.477    c-0.459-0.092-0.934-0.14-1.418-0.14c-1.36,0-2.633,0.379-3.716,1.037H5.402c-0.222,0-0.407,0.182-0.407,0.404v0.271    c0,0.224,0.185,0.405,0.407,0.405h9.976C14.366,17.132,13.659,18.451,13.401,19.925z M19.485,19.415    c0.356,0.239,0.882,0.464,1.575,0.673c1.277,0.385,2.208,0.861,2.791,1.43c0.584,0.569,0.876,1.277,0.876,2.126    c0,0.942-0.356,1.683-1.07,2.219s-1.674,0.805-2.881,0.805c-0.839,0-1.602-0.153-2.291-0.461    c-0.688-0.307-1.213-0.727-1.575-1.261c-0.361-0.533-0.542-1.152-0.542-1.855h2.253c0,1.202,0.718,1.804,2.155,1.804    c0.533,0,0.95-0.109,1.249-0.326c0.3-0.217,0.449-0.52,0.449-0.909c0-0.424-0.149-0.749-0.449-0.977    c-0.299-0.227-0.838-0.467-1.616-0.718c-0.778-0.253-1.395-0.501-1.849-0.745c-1.237-0.669-1.855-1.569-1.855-2.702    c0-0.588,0.166-1.113,0.497-1.575c0.332-0.461,0.809-0.821,1.43-1.081s1.318-0.39,2.092-0.39c0.778,0,1.472,0.142,2.081,0.423    c0.608,0.282,1.081,0.68,1.418,1.194c0.337,0.514,0.505,1.098,0.505,1.751h-2.245c0-0.499-0.157-0.887-0.472-1.164    c-0.314-0.276-0.756-0.415-1.324-0.415c-0.549,0-0.976,0.116-1.28,0.348c-0.304,0.232-0.456,0.538-0.456,0.917    C18.95,18.879,19.128,19.176,19.485,19.415z"></path>
	</g>
</g>
</svg>