<svg version="1.1" id="Layer_1" xmlns="http://www.w3.org/2000/svg" xmlns:xlink="http://www.w3.org/1999/xlink" x="0px" y="0px" width="28.35px" height="28.35px" viewBox="0 0 28.35 28.35" enable-background="new 0 0 28.35 28.35" xml:space="preserve" class="slide-icon style-svg replaced-svg svg-replaced-16">
<g id="Gerenciador_de_Compras">
	<g>
		<path fill="#FFFFFF" d="M16.642,19.937c-2.016,0-3.73,0.002-5.747,0c-1.189,0-1.078-0.127-1.49-1.203    c-1.413-3.686-2.524-6.767-3.937-10.453C4.98,7.005,4.844,6.306,3.488,6.298C3.21,6.297,2.326,6.304,2.052,6.268    c-0.73-0.096-1.36,0.039-1.312-0.809c0.042-0.754,0.387-1.13,1.114-1.146c0.982-0.02,1.967,0.027,2.949-0.016    C5.58,4.265,5.995,4.595,6.265,5.311c1.425,3.763,2.88,7.514,4.327,11.269c0.493,1.283,0.618,1.367,1.983,1.367    c2.823,0,5.646-0.021,8.468,0.012c0.864,0.012,1.352-0.334,1.651-1.121c0.889-2.325,1.803-4.639,2.719-6.953    c0.347-0.877,0.843-1.133,1.629-0.888c0.835,0.259,0.594,0.873,0.278,1.693c-1.173,3.05-2.381,5.482-3.582,8.523    c-0.227,0.574-0.688,0.732-1.274,0.73C20.322,19.929,18.784,19.937,16.642,19.937z"></path>
		<path fill="#FFFFFF" d="M16.625,16.435c-1.638,0-3.277,0.008-4.915-0.008c-0.319-0.002-0.786,0.146-0.805-0.406    c-0.018-0.541,0.432-0.467,0.769-0.467c3.352-0.008,6.704-0.006,10.056-0.004c0.333,0,0.742-0.018,0.748,0.426    c0.006,0.498-0.434,0.459-0.787,0.459C20.002,16.435,18.313,16.435,16.625,16.435z"></path>
		<path fill="#FFFFFF" d="M17.926,14.605c0.109-0.674,0.416-0.923,1.074-0.89c1.152,0.059,2.31,0.014,3.465,0.018    c0.303,0.001,0.652-0.021,0.675,0.406c0.025,0.43-0.311,0.462-0.623,0.463C20.993,14.608,19.471,14.605,17.926,14.605z"></path>
		<path fill="#FFFFFF" d="M15.568,14.593c-1.739,0-3.259,0.006-4.78-0.005c-0.283-0.001-0.587-0.064-0.566-0.446    c0.021-0.367,0.312-0.41,0.605-0.41c1.28,0,2.561,0.017,3.841-0.008C15.279,13.712,15.14,14.254,15.568,14.593z"></path>
		<path fill="#FFFFFF" d="M20.384,12.716c0.309-0.302,0.456-0.773,0.902-0.787c0.749-0.025,1.502,0.002,2.251,0.042    c0.166,0.008,0.294,0.185,0.273,0.393c-0.019,0.202-0.139,0.318-0.335,0.346C22.447,12.858,21.422,12.753,20.384,12.716z"></path>
		<path fill="#FFFFFF" d="M12.844,12.772c-0.895,0-1.789,0.01-2.684-0.005c-0.283-0.004-0.583-0.08-0.545-0.464    c0.03-0.308,0.27-0.389,0.547-0.388c0.577,0.002,1.154-0.006,1.73,0.002C12.394,11.925,12.538,12.416,12.844,12.772z"></path>
		<path fill="#FFFFFF" d="M22.988,10.932c-0.274,0-0.552,0.021-0.823-0.007c-0.179-0.019-0.522,0.133-0.444-0.278    c0.047-0.246,0.018-0.569,0.444-0.554c0.624,0.022,1.248,0.001,1.873,0.009c0.252,0.004,0.44,0.123,0.438,0.403    c0,0.279-0.197,0.398-0.44,0.413c-0.348,0.02-0.698,0.005-1.048,0.005C22.988,10.926,22.988,10.929,22.988,10.932z"></path>
		<path fill="#FFFFFF" d="M10.341,10.926c-0.299,0-0.6,0.011-0.898-0.003c-0.263-0.013-0.516-0.086-0.507-0.42    c0.008-0.322,0.235-0.404,0.514-0.405c0.524-0.002,1.049,0.011,1.572-0.016c0.476-0.023,0.433,0.351,0.463,0.611    c0.049,0.408-0.285,0.22-0.471,0.234c-0.224,0.016-0.449,0.004-0.673,0.004C10.341,10.93,10.341,10.928,10.341,10.926z"></path>
		<path fill="#FFFFFF" d="M18.98,6.833c-1.669-0.365-1.736-1.35-1.584-2.635c0.01-0.074,0.008-0.151,0.001-0.226    c-0.042-0.473,0.179-0.415,0.49-0.264c0.478,0.233,0.72,0.691,1.064,1.052c0.335,0.352,0.725,0.445,1.155,0.189    c0.433-0.254,0.526-0.651,0.407-1.109c-0.112-0.438-0.409-0.744-0.767-0.995C19.226,2.48,18.64,2.241,18.021,2.12    c-0.41-0.081-0.679-0.149-0.646-0.678c0.026-0.424-0.293-0.687-0.73-0.706c-0.399-0.018-0.768,0.194-0.74,0.584    c0.049,0.692-0.397,0.727-0.858,0.857c-1.423,0.404-2.258,1.407-2.311,2.73c-0.05,1.25,0.648,2.299,2.088,2.699    c0.904,0.25,1.175,0.674,1.04,1.513c-0.017,0.099-0.002,0.201-0.002,0.301c-0.001,0.378-0.019,0.757,0.004,1.134    c0.024,0.411-0.177,0.391-0.461,0.289c-0.534-0.191-0.737-0.634-0.917-1.121c-0.266-0.716-0.793-0.987-1.394-0.762    c-0.534,0.2-0.72,0.752-0.453,1.474c0.417,1.124,1.314,1.685,2.426,1.925c0.501,0.108,0.896,0.182,0.82,0.856    c-0.045,0.395,0.251,0.636,0.666,0.667c0.446,0.034,0.836-0.192,0.799-0.603c-0.074-0.813,0.438-0.822,0.982-0.953    c1.42-0.339,2.265-1.285,2.38-2.582C20.836,8.356,20.309,7.124,18.98,6.833z M15.758,5.851c-0.289,0.125-0.56-0.131-0.782-0.33    c-0.327-0.291-0.438-0.66-0.308-1.082c0.139-0.448,0.498-0.672,0.907-0.819c0.247-0.088,0.293,0.078,0.29,0.281    c-0.004,0.273,0,0.548,0,0.822c0,0.15,0.014,0.301-0.003,0.449C15.834,5.406,15.998,5.748,15.758,5.851z M17.422,10.873    c0-0.849,0-1.695,0-2.546c0.975,0.197,1.43,0.617,1.416,1.288C18.823,10.313,18.33,10.756,17.422,10.873z"></path>
		<g>
			<path fill="#FFFFFF" d="M10.885,21.009c-1.742-0.006-3.038,1.293-3.04,3.047c-0.001,1.799,1.299,3.119,3.064,3.107     c1.709-0.01,3.108-1.393,3.088-3.051C13.977,22.347,12.642,21.015,10.885,21.009z M10.906,25.284     c-0.709,0.006-1.243-0.539-1.221-1.246c0.021-0.646,0.596-1.197,1.231-1.182c0.637,0.014,1.191,0.588,1.188,1.23     C12.101,24.753,11.576,25.278,10.906,25.284z"></path>
			<path fill="#FFFFFF" d="M22.312,21.009c-1.735-0.02-3.086,1.277-3.113,2.99c-0.028,1.777,1.271,3.137,3.025,3.164     c1.722,0.029,3.085-1.279,3.122-2.996C25.382,22.409,24.057,21.028,22.312,21.009z M23.47,24.181     c-0.042,0.656-0.603,1.135-1.284,1.096c-0.677-0.041-1.174-0.588-1.131-1.252c0.041-0.633,0.649-1.201,1.255-1.174     C22.986,22.882,23.515,23.485,23.47,24.181z"></path>
		</g>
	</g>
</g>
</svg>